<?xml version="1.0" standalone="no"?><!DOCTYPE svg PUBLIC "-//W3C//DTD SVG 1.1//EN" "http://www.w3.org/Graphics/SVG/1.1/DTD/svg11.dtd"><svg t="1649549013694" class="icon" viewBox="0 0 1024 1024" version="1.1" xmlns="http://www.w3.org/2000/svg" p-id="4423" xmlns:xlink="http://www.w3.org/1999/xlink" width="200" height="200"><defs><style type="text/css">@font-face { font-family: "feedback-iconfont"; src: url("//at.alicdn.com/t/font_1031158_u69w8yhxdu.woff2?t=1630033759944") format("woff2"), url("//at.alicdn.com/t/font_1031158_u69w8yhxdu.woff?t=1630033759944") format("woff"), url("//at.alicdn.com/t/font_1031158_u69w8yhxdu.ttf?t=1630033759944") format("truetype"); }
</style></defs><path d="M198.7 292.7h0.9-0.9zM825.8 292.8c-0.3 0.1-0.6 0-0.9 0-14.8 0-26.9 12-26.9 26.9 0 14.8 12 26.9 26.9 26.9h0.3c44.3 0.2 80.3 36.3 80.3 80.6v312.1c0 20.8-8 39.7-20.9 54-6.1 6.7-13.3 12.4-21.4 16.8-11.4 6.2-24.4 9.9-38.3 9.9H199.6c-11 0-21.4-2.3-31-6.3-8.4-3.5-16.1-8.4-22.7-14.4-16.5-14.8-26.9-36.2-26.9-60V427.1c0-44.5 36.2-80.6 80.6-80.6h-0.4c14.6-0.2 26.4-12.1 26.4-26.8 0-14.8-12-26.9-26.9-26.9-73.7 0.5-133.5 60.5-133.5 134.3v312.1c0 71.4 56.1 129.8 126.5 134 2.6 0.2 5.2 0.4 7.9 0.4H825c26.3 0 50.9-7.7 71.6-20.9 5.5-3.5 10.8-7.4 15.7-11.6 28.7-24.7 47-61.2 47-101.9V427.1c0-73.8-59.8-133.8-133.5-134.3z m-0.4 53.7h0.4-0.4zM825 292.7h0.9-0.9z" fill="#4D4D4D" p-id="4424"></path><path d="M298.6 537.8l202.1 96.5c0.2 0.1 0.3 0.1 0.5 0.2 1.3 0.6 2.7 1 4.1 1.4 0.5 0.1 0.9 0.3 1.4 0.4 1.6 0.3 3.3 0.5 5 0.6 0.2 0 0.4 0.1 0.6 0.1 0.5 0 1-0.1 1.5-0.1s1 0.1 1.5 0.1c3.9 0 7.8-0.8 11.6-2.6l201.4-96.2c13.3-6.3 20.5-22 14.7-35.5-6-14.2-22.6-20.3-36.3-13.8l-167.2 79.9c-0.2 0.1-0.4 0-0.4-0.2V159.5c0-11.8-7.1-23.1-18.4-26.6-18.5-5.7-35.4 8-35.4 25.6V567c0 0.2-0.2 0.3-0.4 0.2l-164.2-78.4c-15.9-7.6-35.5 1.8-38.3 20.9-1.6 11.7 5.5 23 16.2 28.1z" fill="#4D4D4D" p-id="4425"></path></svg>