<?xml version="1.0" standalone="no"?><!DOCTYPE svg PUBLIC "-//W3C//DTD SVG 1.1//EN" "http://www.w3.org/Graphics/SVG/1.1/DTD/svg11.dtd"><svg t="1643099949717" class="icon" viewBox="0 0 1024 1024" version="1.1" xmlns="http://www.w3.org/2000/svg" p-id="2175" xmlns:xlink="http://www.w3.org/1999/xlink" width="200" height="200"><defs><style type="text/css"></style></defs><path d="M461.843747 512 10.406151 963.437601C-3.37504 977.218792-3.412751 999.712215 10.437524 1013.562479 24.384355 1027.509306 46.729466 1027.42679 60.562404 1013.593849L512 562.156248 963.437596 1013.593849C977.218787 1027.37504 999.712218 1027.412745 1013.562476 1013.562479 1027.509306 999.615652 1027.426786 977.270542 1013.593849 963.437601L562.156253 512 1013.593849 60.562399C1027.37504 46.781208 1027.412751 24.287786 1013.562476 10.43752 999.615645-3.509307 977.270534-3.42679 963.437596 10.406151L512 461.843752 60.562404 10.406151C46.781213-3.37504 24.287782-3.412745 10.437524 10.43752-3.509306 24.384347-3.426786 46.729458 10.406151 60.562399L461.843747 512 461.843747 512Z" p-id="2176"></path></svg>