<?xml version="1.0" standalone="no"?><!DOCTYPE svg PUBLIC "-//W3C//DTD SVG 1.1//EN" "http://www.w3.org/Graphics/SVG/1.1/DTD/svg11.dtd"><svg t="1659409759013" class="icon" viewBox="0 0 1024 1024" version="1.1" xmlns="http://www.w3.org/2000/svg" p-id="6289" xmlns:xlink="http://www.w3.org/1999/xlink" width="200" height="200"><defs><style type="text/css">@font-face { font-family: "feedback-iconfont"; src: url("//at.alicdn.com/t/font_1031158_u69w8yhxdu.woff2?t=1630033759944") format("woff2"), url("//at.alicdn.com/t/font_1031158_u69w8yhxdu.woff?t=1630033759944") format("woff"), url("//at.alicdn.com/t/font_1031158_u69w8yhxdu.ttf?t=1630033759944") format("truetype"); }
</style></defs><path d="M813.1072 246.2208l-94.8224-94.8224a71.3216 71.3216 0 0 0-41.6768-18.9952 53.9136 53.9136 0 0 0-44.4416 13.4656l-9.984 9.9328c-192.768 191.488-325.9392 324.2496-374.8864 373.76a142.0288 142.0288 0 0 0-37.9904 67.3792l-33.3312 135.6288a63.3344 63.3344 0 0 0 16.2816 59.0336l0.3584 0.4096a62.0032 62.0032 0 0 0 43.4176 19.2512 50.5344 50.5344 0 0 0 17.0496-2.9184c0.8192-0.3072 83.0976-31.4368 137.4208-51.2a193.1264 193.1264 0 0 0 64.5632-41.8816l358.0928-358.0928a78.1312 78.1312 0 0 0 0-110.6944z m-143.616-59.9552a19.2512 19.2512 0 0 1 9.5232 3.328l94.8224 94.8224a22.8864 22.8864 0 0 1 0 33.2288l-27.7504 27.7504-117.76-117.76c8.8576-8.8064 16.6912-16.5376 23.1936-22.8864 8.96-9.1648 14.4896-14.6944 17.9712-18.4832zM588.8 267.776l117.76 118.016-290.816 288.8192-3.3792 3.2768L384 620.032l-0.8192-1.4336-1.28-1.9968a38.1952 38.1952 0 0 0-8.9088-10.752 75.4688 75.4688 0 0 0-11.2128-8.6528l-67.9424-35.4304C356.0448 498.3808 501.76 353.536 588.8 267.776z m-223.9488 438.3232c-48.5888 19.0976-117.76 44.4928-129.1776 48.64a11.7248 11.7248 0 0 1-5.12-3.1232 9.0112 9.0112 0 0 1-3.2256-6.144l34.4576-135.6288v-1.024c0-0.768 0.256-1.4848 0.4608-2.2528l71.3728 37.0176zM823.296 901.12H220.8768a32.256 32.256 0 1 1 0-64.512H823.296a32.256 32.256 0 1 1 0 64.512z" p-id="6290"></path></svg>