<?xml version="1.0" standalone="no"?><!DOCTYPE svg PUBLIC "-//W3C//DTD SVG 1.1//EN" "http://www.w3.org/Graphics/SVG/1.1/DTD/svg11.dtd"><svg t="1642733869760" class="icon" viewBox="0 0 1026 1024" version="1.1" xmlns="http://www.w3.org/2000/svg" p-id="3911" xmlns:xlink="http://www.w3.org/1999/xlink" width="200.390625" height="200"><defs><style type="text/css"></style></defs><path d="M1001.209 572.985c-6.242 0-12.485-2.383-17.249-7.146L513.303 95.18 42.644 565.838c-9.529 9.529-24.967 9.529-34.497 0-9.529-9.53-9.529-24.968 0-34.497L496.055 43.435c9.528-9.529 24.966-9.529 34.496 0l487.905 487.906c9.529 9.529 9.529 24.968 0 34.497C1013.693 570.602 1007.45 572.985 1001.209 572.985zM806.046 987.706 635.28 987.706c-13.485 0-24.396-10.912-24.396-24.396 0-13.483 10.911-24.395 24.396-24.395l170.767 0c26.898 0 48.791-21.894 48.791-48.791L854.838 621.776c0-13.483 10.912-24.395 24.395-24.395 13.485 0 24.396 10.911 24.396 24.395l0 268.349C903.627 943.942 859.863 987.706 806.046 987.706zM391.325 987.706 220.559 987.706c-53.817 0-97.582-43.765-97.582-97.582l0.001-463.511c0-13.484 10.911-24.396 24.395-24.396s24.396 10.912 24.396 24.396l0 463.511c0 26.897 21.894 48.789 48.791 48.789l146.372 0L366.932 719.357c0-13.483 10.911-24.396 24.396-24.396L635.28 694.961c13.485 0 24.395 10.912 24.395 24.396 0 13.484-10.909 24.395-24.395 24.395L415.721 743.752 415.721 963.31C415.721 976.794 404.81 987.706 391.325 987.706z" p-id="3912"></path></svg>