<?xml version="1.0" standalone="no"?><!DOCTYPE svg PUBLIC "-//W3C//DTD SVG 1.1//EN" "http://www.w3.org/Graphics/SVG/1.1/DTD/svg11.dtd"><svg t="1642920553880" class="icon" viewBox="0 0 1024 1024" version="1.1" xmlns="http://www.w3.org/2000/svg" p-id="4667" xmlns:xlink="http://www.w3.org/1999/xlink" width="200" height="200"><defs><style type="text/css"></style></defs><path d="M511.741935 420.645162 511.741935 420.645162 512 420.645162 512.516129 420.645162 511.741935 420.645162ZM495.483871 427.870968 306.32258 616.516129C297.032258 625.548387 297.032258 640.516128 306.32258 650.064518 315.354838 659.096774 330.580645 659.096774 339.870968 650.064518L488.258065 501.67742 488.258065 820.866362C488.258065 833.769587 498.83871 844.866362 512 844.866362 525.16129 844.866362 535.741935 833.769587 535.741935 820.866362L535.741935 501.67742 684.387098 650.064518C693.677421 659.096774 708.645158 659.096774 718.193549 650.064518 726.967744 640.516128 726.967744 625.548387 718.193549 616.516129L528.516129 427.870968 527.483871 426.83871 526.451613 425.806452C525.16129 424.516129 524.129032 424 523.612903 423.225807L522.32258 423.225807C520.774193 421.935484 519.741935 421.67742 518.451613 421.67742L516.129032 421.16129 514.32258 420.645162 512.516129 420.645162 509.935484 420.645162 507.870968 421.16129 505.806452 421.67742C504.516129 421.67742 503.225807 421.935484 502.193548 422.709677L500.903226 423.225807C499.870968 424 498.83871 424.516129 498.32258 425.032258L496.516129 426.32258 495.483871 427.870968ZM820.387098 766.451616C854.709677 766.193549 886.451616 752.258067 908.387098 729.806451 931.096774 706.580646 945.032256 675.612902 945.032256 640.516128 945.032256 609.548387 934.451616 581.67742 916.12903 559.225807 897.548384 537.290323 871.225805 521.806452 841.032256 516.645162 821.677421 512.774193 808 496.516129 808 477.67742L808 477.419355C808 402.83871 777.806451 334.709677 728.774195 285.935484 679.741933 236.903226 611.870968 206.451613 537.548387 206.451613 482.064516 206.451613 430.709677 222.967742 388.129032 250.580645 344 280.258065 309.16129 321.290323 288 370.580645 281.806452 385.290323 267.870968 394.32258 252.645162 394.83871 204.129032 397.419355 161.032258 418.83871 129.290323 452.645162 97.806452 485.419355 78.967742 530.580645 78.967742 580.129032 78.967742 631.741935 99.612903 678.451616 133.16129 712L133.67742 712C167.225807 745.806451 213.67742 766.451616 264.774193 766.451616L281.290323 766.451616 282.32258 766.451616 382.967742 766.451616 394.83871 766.451616C416.774193 766.451616 434.580645 784.516128 434.580645 805.935482 434.580645 827.354842 416.774193 845.419354 394.83871 845.419354L382.967742 845.419354 282.32258 845.419354 281.290323 845.419354 264.774193 845.419354C191.741935 845.419354 125.419355 816 77.419355 767.225805 29.677419 719.483872 0 653.161293 0 580.129032 0 510.193548 27.354839 445.67742 72.258065 398.193548 112 356.645162 165.67742 327.741935 225.548387 318.193548 253.419355 264 294.709677 218.83871 345.032258 185.806452 400.258065 149.16129 466.32258 128 537.548387 128 633.548387 128 721.032256 166.967742 784.516128 230.193548 841.032256 286.967742 878.451616 362.83871 885.935482 446.967742 921.032256 458.580645 952.258067 481.032258 975.741933 508.903226 1005.935482 544.516129 1024 590.709677 1024 640.516128 1024 697.290323 1001.032256 748.387098 964.12903 785.548384L963.87097 785.548384C931.612902 818.064518 888.258067 839.225805 840 844.645158 837.161293 844.903226 834.064518 845.419354 830.967744 845.419354L820.645158 845.419354 819.354842 845.419354 644.12903 845.419354 642.580646 845.419354C620.903226 845.419354 603.354838 827.354842 603.354838 805.935482 603.354838 784.516128 620.903226 766.451616 642.580646 766.451616L644.12903 766.451616 820.387098 766.451616Z" p-id="4668"></path></svg>