<?xml version="1.0" standalone="no"?><!DOCTYPE svg PUBLIC "-//W3C//DTD SVG 1.1//EN" "http://www.w3.org/Graphics/SVG/1.1/DTD/svg11.dtd"><svg t="1648303787872" class="icon" viewBox="0 0 1059 1024" version="1.1" xmlns="http://www.w3.org/2000/svg" p-id="3676" xmlns:xlink="http://www.w3.org/1999/xlink" width="206.8359375" height="200"><defs><style type="text/css">@font-face { font-family: "feedback-iconfont"; src: url("//at.alicdn.com/t/font_1031158_u69w8yhxdu.woff2?t=1630033759944") format("woff2"), url("//at.alicdn.com/t/font_1031158_u69w8yhxdu.woff?t=1630033759944") format("woff"), url("//at.alicdn.com/t/font_1031158_u69w8yhxdu.ttf?t=1630033759944") format("truetype"); }
</style></defs><path d="M817.540414 298.619586c0-164.89931-135.768276-298.619586-303.280552-298.619586S210.97931 133.684966 210.97931 298.619586c0 164.89931 135.768276 298.619586 303.315862 298.619586 167.476966 0 303.245241-133.684966 303.245242-298.619586z m-553.807448 0c0-136.22731 112.145655-246.678069 250.526896-246.678069 138.381241 0 250.526897 110.450759 250.526897 246.678069 0 136.22731-112.145655 246.678069-250.526897 246.678069-138.381241 0-250.526897-110.450759-250.526896-246.678069zM0 986.747586v25.953104h1054.896552v-25.953104c0-233.154207-244.065103-441.449931-527.465931-441.449931-17.019586 0-34.003862 0.706207-50.811587 2.01269-14.512552 1.165241 23.304828 13.700414 24.470069 28.001103 15.39531-1.235862 10.734345 21.892414 26.341518 21.892414 255.823448 0 474.712276 186.862345 474.712276 389.543724l26.376827-25.988414H26.376828l26.376827 25.988414c0-137.922207 88.381793-263.980138 230.823724-334.177103a25.776552 25.776552 0 0 0 11.758345-34.851311 26.553379 26.553379 0 0 0-35.380965-11.581793C100.528552 684.667586 0 828.027586 0 986.747586z" p-id="3677"></path></svg>