<?xml version="1.0" standalone="no"?><!DOCTYPE svg PUBLIC "-//W3C//DTD SVG 1.1//EN" "http://www.w3.org/Graphics/SVG/1.1/DTD/svg11.dtd"><svg t="1646111631656" class="icon" viewBox="0 0 1117 1024" version="1.1" xmlns="http://www.w3.org/2000/svg" p-id="2684" xmlns:xlink="http://www.w3.org/1999/xlink" width="218.1640625" height="200"><defs><style type="text/css"></style></defs><path d="M490.682182 401.780364c9.960727-18.897455 18.990545-48.779636 18.990545-87.784728 0-116.736-48.779636-174.545455-145.687272-174.545454H228.445091v583.400727h87.877818v-253.207273h48.779636l77.73091 252.276364H530.618182L442.833455 459.869091c18.990545-18.990545 37.888-39.005091 47.848727-57.995636z m-67.770182-48.779637c0 9.960727 0 18.990545-9.960727 28.858182 0 0-9.960727 9.960727-18.897455 9.960727-9.029818 0-18.990545 9.960727-38.912 9.960728h-38.818909V216.343273h38.818909c28.858182 0 48.779636 9.960727 57.809455 18.990545 9.960727 9.960727 9.960727 18.990545 9.960727 28.858182v88.808727z m200.424727 466.757818h253.300364v-87.784727H701.160727V565.434182h146.618182v-77.824H701.160727V311.202909H867.607273v-77.917091H623.336727v586.472727zM957.533091 0v79.778909c47.848727 0 79.685818 31.837091 79.685818 79.685818V797.789091c0 47.848727-31.837091 79.778909-79.778909 79.778909v79.685818A160.116364 160.116364 0 0 0 1117.090909 797.602909V159.464727A160.209455 160.209455 0 0 0 957.44 0zM0 159.464727V797.789091a160.116364 160.116364 0 0 0 159.650909 159.650909v-79.778909c-47.941818 0-79.778909-31.837091-79.778909-79.685818V159.464727c0-47.848727 31.837091-79.685818 79.778909-79.685818V0A160.116364 160.116364 0 0 0 0 159.464727z" p-id="2685"></path></svg>