<?xml version="1.0" standalone="no"?><!DOCTYPE svg PUBLIC "-//W3C//DTD SVG 1.1//EN" "http://www.w3.org/Graphics/SVG/1.1/DTD/svg11.dtd"><svg t="1646701370904" class="icon" viewBox="0 0 1024 1024" version="1.1" xmlns="http://www.w3.org/2000/svg" p-id="4880" xmlns:xlink="http://www.w3.org/1999/xlink" width="200" height="200"><defs><style type="text/css"></style></defs><path d="M551.3 920.9c-9.3 0-18.7-3.5-25.8-10.7L112.4 497.1c-6.8-6.9-10.7-16.1-10.7-25.8s3.9-19 10.7-25.8c7.8-7.8 16.1-15 24.7-21.3 32.2-23.9 70.6-38.4 110.9-42 28.1-2.4 56.1 0.4 83.2 8.6 34.1 10.3 65.6 29.2 91.1 54.7l154.9 154.9c39 39 61.7 90.8 64 145.9 1 26.9-2.7 53.4-11.2 78.8-7.3 21.9-18.1 42.4-31.9 60.9-6.4 8.6-13.4 16.6-20.9 24.2-7.2 7.2-16.6 10.7-25.9 10.7M193.1 474.6l355 355c5.1-8.8 9.3-18 12.5-27.6 5.8-17 8.2-34.7 7.5-52.7-1.5-36.6-16.7-71.2-42.6-97.2l-154.9-155c-17.2-17.2-37.6-29.5-60.6-36.5-18-5.5-36.8-7.4-55.5-5.8-21.7 2-42.7 8.7-61.4 19.8" p-id="4881"></path><path d="M141 958.7c-19.7 0-39.4-7.6-54.4-22.6-28-28.1-30.2-72.4-5-103l183-229.6c12.6-15.7 35.5-18.3 51.3-5.8 15.8 12.6 18.3 35.6 5.8 51.3L138.4 879c-1.6 1.9-1.4 4.1-0.1 5.5 1.4 1.3 3.5 1.5 5 0.3l230.4-183.7c15.8-12.5 38.7-9.9 51.3 5.8 12.6 15.8 10 38.7-5.8 51.3l-230 183.3c-14.1 11.4-31.2 17.2-48.2 17.2m524.7-384.2c-8.4 0-16.6-2.9-23.1-8.3-15.6-12.8-17.9-35.8-5.1-51.4l117.9-144.1c12.9-15.6 35.8-17.9 51.4-5.2 15.6 12.8 18 35.8 5.2 51.4L694 561.1c-7.2 8.8-17.7 13.4-28.3 13.4" p-id="4882"></path><path d="M370.6 486.6c-10.6 0-21.1-4.6-28.3-13.4-12.8-15.6-10.5-38.6 5.1-51.4l243-198.7C578 174 591.9 120.8 628.7 84c13.8-13.7 32.1-21.4 51.6-21.4h0.1c19.6 0 37.9 7.6 51.7 21.4l206.6 206.5c13.8 13.8 21.4 32.2 21.4 51.7s-7.6 37.8-21.5 51.6c-27.5 27.6-64.2 42.8-103.2 42.8-39.1 0-75.7-15.2-103.3-42.8L695 356.7c-14.3-14.2-14.3-37.4 0-51.6 14.3-14.3 37.4-14.3 51.6 0l37.2 37.1c27.5 27.6 75.7 27.6 103.3 0L680.4 135.7c-22 22-27.6 55.5-14 83.5 7.2 14.9 3.4 32.7-9 43.5l-5.5 4.5-258.2 211.2c-6.8 5.5-14.9 8.2-23.1 8.2" p-id="4883"></path></svg>