<?xml version="1.0" standalone="no"?><!DOCTYPE svg PUBLIC "-//W3C//DTD SVG 1.1//EN" "http://www.w3.org/Graphics/SVG/1.1/DTD/svg11.dtd"><svg t="1646027566165" class="icon" viewBox="0 0 1024 1024" version="1.1" xmlns="http://www.w3.org/2000/svg" p-id="6309" xmlns:xlink="http://www.w3.org/1999/xlink" width="200" height="200"><defs><style type="text/css"></style></defs><path d="M1004.311166 747.633798c-9.754101-96.818487-68.639972-181.354031-155.343094-223.983066 29.623567-23.301464 51.841242-54.189451 64.485447-89.954489 14.269889-40.461457 15.173046-83.451755 2.709473-124.635739-12.644205-41.003352-37.390721-76.226495-71.891339-101.695537-34.500617-25.469042-75.323337-39.016405-118.313636-39.016405-15.353678 0-30.707356 1.986947-47.325454 5.96084l-13.908626 3.251367 9.57347 10.476627c13.547363 14.631152 25.469042 30.887987 35.584406 48.228612l2.528841 4.335156 5.057683-0.180631c1.625684 0 3.251367-0.361263 4.696419-0.541895 1.445052-0.180632 2.709473-0.361263 3.793261-0.361263 34.139354 0 66.291762 13.366731 90.315753 37.390722 24.204622 24.204622 37.390721 56.176398 37.390721 90.315752s-13.1861 66.291762-37.390721 90.496384c-24.204622 24.204622-56.176398 37.390721-90.315753 37.390721-1.264421 0-2.709473-0.180632-4.515787-0.361263-1.264421-0.180632-2.528841-0.361263-3.793262-0.361263l-5.238314-0.361263-2.528841 4.515788c-11.018522 19.146939-24.385253 37.029458-39.919562 52.925031l-18.966308 19.508202 26.552831-5.599576c14.269889-3.070736 28.720409-4.515788 42.809667-4.515788 108.01764 0 197.610866 81.103546 208.448756 188.579291l0.722526 7.405892H1004.130534v-8.30905l0.180632-0.903157z" p-id="6310" data-spm-anchor-id="a313x.7781069.0.i19" class="selected" fill="#409EFF"></path><path d="M800.920092 834.517552c-13.366731-40.100194-33.055565-77.852179-58.343976-111.810902-25.288411-34.139354-55.453872-63.762921-89.95449-88.328806-30.526724-21.675781-63.762921-39.016405-98.986064-51.479978 47.686717-32.152408 84.174281-77.129652 106.211325-130.77721 24.204622-59.427765 27.997883-123.371318 11.199153-185.147292s-52.744399-115.062268-103.501852-153.898042c-50.938084-38.835774-111.63027-59.427765-175.754454-59.427765-65.388605 0.180632-129.69342 22.75957-180.631505 63.762921-51.118716 41.003352-87.064385 98.624802-101.334274 162.568354-14.269889 63.943553-6.322103 131.499735 22.217675 190.204975 26.010937 53.466925 68.45934 97.902276 120.300582 126.622684-67.19492 30.887987-124.274475 79.297231-165.819721 140.892574-45.157876 66.472394-68.820603 143.963309-68.820604 224.344329v8.309049h67.556183v-8.309049c0-1.264421 0-2.34821-0.180631-3.431999 0-0.903158-0.180632-1.625684-0.180632-2.167578 0-181.534662 147.575939-329.291233 328.92997-329.471864 181.354031 0 328.92997 147.756571 328.92997 329.291233 0 0.722526 0 1.445052-0.180631 2.348209 0 1.083789-0.180632 2.167578-0.180632 3.251367v8.30905h79.116599v-8.30905c0-43.351561-6.863997-86.341859-20.591991-127.34521zM608.366908 343.199859c0 119.578056-97.17975 216.757806-216.757806 216.757805s-216.757806-97.17975-216.757805-216.757805 97.17975-216.757806 216.757805-216.757806 216.757806 97.17975 216.757806 216.757806z" p-id="6311" data-spm-anchor-id="a313x.7781069.0.i18" class="selected" fill="#409EFF"></path></svg>